<?xml version="1.0" encoding="UTF-8" standalone="no"?>
<!-- Created with Inkscape (http://www.inkscape.org/) -->

<svg
   xmlns:dc="http://purl.org/dc/elements/1.1/"
   xmlns:cc="http://creativecommons.org/ns#"
   xmlns:rdf="http://www.w3.org/1999/02/22-rdf-syntax-ns#"
   xmlns:svg="http://www.w3.org/2000/svg"
   xmlns="http://www.w3.org/2000/svg"
   xmlns:xlink="http://www.w3.org/1999/xlink"
   xmlns:sodipodi="http://sodipodi.sourceforge.net/DTD/sodipodi-0.dtd"
   xmlns:inkscape="http://www.inkscape.org/namespaces/inkscape"
   width="46.302082mm"
   height="16.950266mm"
   viewBox="0 0 164.06249 60.059997"
   id="svg4172"
   version="1.1"
   inkscape:version="0.91 r13725"
   sodipodi:docname="dtp_logo.svg">
  <defs
     id="defs4174">
    <linearGradient
       inkscape:collect="always"
       id="linearGradient4186">
      <stop
         style="stop-color:#ff0000;stop-opacity:1"
         offset="0"
         id="stop4188" />
      <stop
         id="stop4206"
         offset="0.1666667"
         style="stop-color:#ffff00;stop-opacity:1" />
      <stop
         id="stop4194"
         offset="0.33333333"
         style="stop-color:#00ff00;stop-opacity:1" />
      <stop
         style="stop-color:#00ffff;stop-opacity:1"
         offset="0.5"
         id="stop4204" />
      <stop
         style="stop-color:#0000ff;stop-opacity:1"
         offset="0.66666666"
         id="stop4196" />
      <stop
         id="stop4202"
         offset="0.83333333"
         style="stop-color:#ff00ff;stop-opacity:1" />
    </linearGradient>
    <linearGradient
       inkscape:collect="always"
       xlink:href="#linearGradient4186"
       id="linearGradient4192"
       x1="211.42857"
       y1="667.77789"
       x2="375.49107"
       y2="667.77789"
       gradientUnits="userSpaceOnUse" />
  </defs>
  <sodipodi:namedview
     id="base"
     pagecolor="#ffffff"
     bordercolor="#666666"
     borderopacity="1.0"
     inkscape:pageopacity="0.0"
     inkscape:pageshadow="2"
     inkscape:zoom="3.959798"
     inkscape:cx="35.000354"
     inkscape:cy="22.588537"
     inkscape:document-units="px"
     inkscape:current-layer="layer1"
     showgrid="true"
     fit-margin-top="0"
     fit-margin-left="0"
     fit-margin-right="0"
     fit-margin-bottom="0"
     inkscape:window-width="1295"
     inkscape:window-height="657"
     inkscape:window-x="64"
     inkscape:window-y="249"
     inkscape:window-maximized="0" />
  <metadata
     id="metadata4177">
    <rdf:RDF>
      <cc:Work
         rdf:about="">
        <dc:format>image/svg+xml</dc:format>
        <dc:type
           rdf:resource="http://purl.org/dc/dcmitype/StillImage" />
        <dc:title></dc:title>
      </cc:Work>
    </rdf:RDF>
  </metadata>
  <g
     inkscape:label="Layer 1"
     inkscape:groupmode="layer"
     id="layer1"
     transform="translate(-211.42857,-637.74789)">
    <g
       style="font-style:normal;font-weight:normal;font-size:40px;line-height:125%;font-family:sans-serif;letter-spacing:0px;word-spacing:0px;fill:url(#linearGradient4192);fill-opacity:1;stroke:none;stroke-width:1px;stroke-linecap:butt;stroke-linejoin:miter;stroke-opacity:1"
       id="text4180">
      <path
         d="m 269.80857,665.04789 q 0,11.64 -9.66,18.06 -6.6,4.44 -20.34,7.38 -15.84,3.42 -18.18,4.44 -0.72,0.42 -0.72,2.82 l -6.06,0 q -1.86,-1.62 -2.34,-2.16 -1.08,-1.2 -1.08,-2.52 0,-0.9 2.04,-4.26 2.28,-3.78 3.96,-3.78 1.02,0 1.02,0.42 0,0.42 0.96,0.42 1.02,0 2.76,-0.6 1.8,-0.66 2.4,-0.72 18.54,-2.04 29.52,-6.84 1.32,-0.6 4.5,-5.4 3.24,-4.8 3.24,-6.06 0,-1.26 -0.48,-1.92 -0.48,-0.66 -0.9,-1.2 0.24,-1.08 0.24,-2.22 0,-4.38 -4.14,-8.46 -3.18,-3.18 -8.1,-5.52 -1.62,-0.78 -4.74,-1.02 -1.74,-0.06 -7.74,-0.06 -0.18,0.12 -0.96,0.36 -0.36,0.06 -0.36,1.26 0,0.9 0.96,2.28 1.02,1.38 1.14,2.04 1.86,11.1 1.86,16.44 0,2.04 -4.14,7.74 -0.42,0.12 -1.68,0.84 0.06,0 0.12,0.06 -0.18,0.18 -1.5,0.18 -3.06,0 -4.2,-3.42 -0.6,-1.68 -0.6,-3.78 0,-1.02 1.62,-7.02 1.62,-6.06 1.62,-7.08 l 0,-5.34 -1.32,-1.38 q -0.54,0.24 -2.34,1.86 -1.5,1.38 -2.34,1.38 -0.78,0 -1.68,-0.18 -0.84,-0.18 -1.14,-0.18 -0.6,0 -1.32,0.3 -1.86,-3.24 -1.86,-5.46 7.26,-5.34 9.84,-6.18 3.6,-1.14 9.96,-1.98 5.22,-0.72 7.38,-0.72 2.7,0 9.72,4.08 6.54,3.78 7.5,5.16 2.1,2.46 6.42,8.52 1.08,1.8 1.2,5.04 -0.06,-1.38 -0.06,4.38 z"
         style="font-style:normal;font-variant:normal;font-weight:normal;font-stretch:normal;font-size:60px;font-family:'Cracked Johnnie';-inkscape-font-specification:'Cracked Johnnie';fill:url(#linearGradient4192);fill-opacity:1"
         id="path4144" />
      <path
         d="m 332.26857,639.84789 q -0.66,0.6 -1.26,1.98 -0.6,1.32 -0.6,2.04 -3.6,0.9 -12.72,4.32 -7.98,3 -9.12,3 -3.18,0 -8.34,2.52 -0.72,8.64 -2.64,24 0.18,-0.9 0.18,6.18 0,13.86 -5.28,13.86 -0.9,0 -1.56,-0.24 -0.6,-0.18 -0.66,-0.18 -0.24,0 -0.6,0.42 -0.3,-1.44 -1.8,-5.88 -1.2,-3.6 -1.2,-4.86 0,-1.08 0.96,-3 1.2,-2.34 1.38,-2.94 1.26,-4.5 2.22,-12.18 0.78,-6.36 0.78,-8.76 0,-1.44 -1.08,-2.46 -1.08,-1.08 -2.46,-1.08 -1.2,0 -3.36,1.68 -2.94,2.34 -3.18,2.46 -1.38,0.84 -4.08,1.26 -3.36,0.54 -4.26,0.84 l -2.1,-2.1 0,-3.06 q 7.92,-6.54 15.66,-9.72 8.22,-3.3 16.98,-6.48 10.08,-3.72 11.64,-3.72 1.38,0 1.8,0.54 0.42,0.54 0.78,1.08 5.16,-1.08 10.98,-0.36 1.32,0.84 2.94,0.84 z"
         style="font-style:normal;font-variant:normal;font-weight:normal;font-stretch:normal;font-size:60px;font-family:'Cracked Johnnie';-inkscape-font-specification:'Cracked Johnnie';fill:url(#linearGradient4192);fill-opacity:1"
         id="path4146" />
      <path
         d="m 375.49107,655.50789 q 0,0.84 -0.78,4.32 -0.84,3.9 -1.02,5.4 -1.38,1.92 -3.96,4.26 -3.12,2.82 -4.98,3.48 -1.62,0.48 -4.68,0.78 -2.52,0.18 -5.04,0.42 0.06,1.2 -1.68,1.2 -0.84,0 -2.46,0.78 -1.62,0.72 -2.4,0.72 -0.84,0 -2.22,-0.72 -1.32,-0.78 -2.28,-0.78 -3.66,0 -7.08,5.28 -1.56,2.34 -5.22,10.2 -2.82,6 -4.5,6.96 l -3.36,0 q 0,-0.24 -0.42,-1.56 -0.42,-1.26 -0.42,-2.1 0,-0.9 1.32,-2.7 1.32,-1.8 1.5,-2.52 0.18,-0.96 0.06,-3.66 -0.18,-2.46 0.36,-3.66 1.26,-3.48 3.72,-9.48 0.6,-1.08 2.4,-3.12 1.86,-2.04 2.4,-3.18 1.2,-2.64 2.46,-5.34 1.62,-3.12 3.42,-3.12 1.38,0 2.76,1.08 1.38,1.02 1.38,2.34 0,2.34 -3.06,6.84 0,2.52 1.92,2.52 l 3.72,0 q 3.78,0 11.1,-3.3 7.62,-3.48 8.52,-6.18 1.02,-3.12 1.02,-4.38 0,-7.32 -10.32,-9.78 -4.68,-1.14 -13.32,-1.14 -0.6,0 -6.84,2.7 -6.18,2.7 -8.46,2.46 0.24,-2.94 6.42,-7.14 4.2,-2.76 7.98,-4.44 0.78,-0.3 2.52,-0.42 1.2,-0.06 3.18,0.06 2.46,0.06 2.7,0.06 0.3,0 1.92,-0.12 1.62,-0.18 2.7,-0.18 2.34,0 3.78,0.6 3.84,1.62 9.3,7.14 5.94,6 5.94,9.42 z"
         style="font-style:normal;font-variant:normal;font-weight:normal;font-stretch:normal;font-size:60px;font-family:'Cracked Johnnie';-inkscape-font-specification:'Cracked Johnnie';fill:url(#linearGradient4192);fill-opacity:1"
         id="path4148" />
    </g>
  </g>
</svg>
